<?xml version="1.0" standalone="no"?>
<!DOCTYPE svg PUBLIC "-//W3C//DTD SVG 20010904//EN"
 "http://www.w3.org/TR/2001/REC-SVG-20010904/DTD/svg10.dtd">
<svg version="1.0" xmlns="http://www.w3.org/2000/svg"
 width="2000.000000pt" height="2000.000000pt" viewBox="0 0 2000.000000 2000.000000"
 preserveAspectRatio="xMidYMid meet">

<g transform="translate(0.000000,2000.000000) scale(0.100000,-0.100000)"
fill="#000000" stroke="none">
<path d="M0 10000 l0 -10000 10000 0 10000 0 0 10000 0 10000 -10000 0 -10000
0 0 -10000z m17721 5690 c17 -10 19 -22 19 -145 0 -123 -2 -135 -19 -145 -21
-11 -189 -14 -215 -4 -14 5 -16 28 -16 149 0 105 3 145 13 148 23 10 198 7
218 -3z m-10313 -377 c10 -21 8 -265 -2 -282 -11 -17 -470 -16 -484 2 -10 12
-7 271 4 288 3 5 111 9 239 9 213 0 235 -2 243 -17z m7118 -494 c9 -15 8 -554
-1 -568 -7 -13 -473 -15 -492 -3 -13 8 -21 342 -8 362 9 14 178 13 193 -2 7
-7 13 -30 14 -52 1 -40 1 -40 5 -7 3 19 13 46 24 59 16 20 19 41 19 117 0 50
3 95 7 98 12 12 231 8 239 -4z m-11948 -247 l42 -2 0 -145 c0 -132 -2 -145
-19 -155 -22 -11 -160 -14 -210 -4 l-31 7 0 148 0 148 48 3 c46 3 82 3 170 0z
m-693 -332 l26 -10 -3 -107 -3 -108 -85 0 -85 0 -5 50 c-9 90 0 173 18 178 32
9 111 7 137 -3z m515 -250 c6 -8 9 -64 8 -125 l-3 -110 -190 -3 c-104 -1 -200
0 -213 3 -22 5 -23 8 -20 118 4 144 -7 138 231 135 145 -3 180 -6 187 -18z
m8130 -540 c155 -10 303 -27 416 -50 150 -29 410 -122 454 -162 71 -64 125
-101 172 -117 30 -10 77 -30 105 -45 l52 -26 423 -1 c233 -1 437 -4 453 -8
l30 -6 3 -102 c2 -90 1 -103 -16 -112 -10 -5 -133 -11 -280 -12 -145 -1 -265
-6 -268 -10 -3 -5 23 -34 57 -66 96 -89 262 -295 347 -428 82 -130 191 -333
245 -460 19 -44 46 -105 59 -135 34 -74 39 -91 97 -275 66 -210 81 -271 130
-510 49 -245 69 -423 52 -470 -9 -26 -8 -39 4 -68 8 -20 15 -51 15 -69 0 -18
4 -38 8 -45 5 -9 73 -15 222 -20 l215 -8 3 -99 c2 -62 -1 -103 -8 -110 -7 -7
-79 -13 -183 -16 l-172 -5 -6 -405 c-7 -468 -20 -629 -80 -990 -37 -217 -36
-216 -92 -432 -54 -207 -112 -364 -144 -385 -13 -9 -52 -15 -102 -16 -44 -2
-83 -5 -86 -8 -3 -4 -14 -31 -25 -62 -11 -31 -34 -84 -52 -119 -41 -81 -107
-251 -101 -260 2 -5 14 -8 27 -8 13 0 36 -4 52 -9 16 -5 41 -12 57 -15 33 -8
33 -12 2 -80 -14 -30 -25 -57 -25 -61 0 -3 -11 -22 -23 -43 -13 -20 -55 -89
-93 -152 -123 -207 -233 -351 -382 -504 -287 -292 -596 -490 -952 -608 -187
-62 -254 -79 -470 -114 -135 -22 -648 -26 -780 -6 -222 34 -490 84 -540 101
-14 5 -45 15 -70 22 -127 36 -384 150 -487 216 -29 18 -54 33 -56 33 -6 0
-171 111 -212 142 -103 79 -276 247 -364 352 -133 160 -162 212 -128 233 6 4
17 23 24 42 11 30 9 40 -12 88 -14 29 -25 58 -25 64 0 5 -10 28 -22 50 -25 43
-57 57 -93 41 -16 -8 -26 -7 -34 1 -8 8 -85 14 -234 18 -122 4 -233 8 -247 10
l-25 4 -5 140 c-5 148 -3 178 11 169 5 -3 9 -40 10 -82 1 -89 16 -64 18 30 1
46 5 59 20 68 11 6 90 10 186 10 179 0 191 4 167 53 -22 46 -130 383 -160 502
-147 569 -196 998 -190 1660 l3 320 55 3 c30 2 111 6 180 10 69 4 131 11 138
15 8 6 12 37 12 98 0 78 -2 89 -17 89 -61 0 -205 9 -245 15 -51 8 -62 22 -48
61 7 17 7 32 0 45 -9 16 -14 17 -30 7 -10 -7 -22 -9 -26 -5 -7 6 4 101 22 195
4 21 1 43 -7 58 -11 21 -10 40 4 117 38 212 94 453 142 607 14 47 30 99 35
115 21 76 62 189 91 252 10 24 19 46 19 51 0 18 165 331 201 384 11 14 19 29
19 32 0 3 16 28 35 55 19 26 35 52 35 56 0 16 81 120 205 265 129 150 397 379
510 435 33 17 62 33 65 36 11 13 150 92 235 134 356 174 725 273 1100 295 195
11 197 11 375 0z m-4310 -364 c3 -159 1 -254 -5 -261 -7 -9 -66 -14 -199 -18
-143 -4 -191 -8 -197 -19 -13 -20 -11 -365 2 -374 6 -4 97 -9 203 -13 l191 -6
3 -1155 c2 -1077 1 -1156 -15 -1167 -10 -8 -50 -13 -97 -14 -45 -1 -108 -4
-141 -8 l-59 -6 -13 -60 c-16 -80 -16 -164 2 -195 9 -15 14 -54 15 -97 0 -39
4 -74 9 -77 4 -3 59 -8 122 -11 63 -3 129 -8 147 -11 l32 -5 0 -354 c0 -327 1
-355 18 -363 9 -6 136 -10 282 -11 146 -1 281 -5 300 -9 l35 -8 3 -742 c2
-717 2 -742 -17 -751 -11 -6 -141 -12 -317 -13 l-299 -3 -3 -279 c-1 -154 1
-283 6 -288 4 -4 79 -10 167 -13 227 -9 205 3 205 -115 0 -54 -4 -101 -8 -104
-5 -3 -80 -8 -168 -12 -87 -4 -169 -11 -181 -15 l-23 -9 0 -339 0 -340 -32 -6
c-32 -6 -1606 1 -1718 7 l-55 3 -3 750 c-1 412 -6 753 -10 757 -4 4 -702 8
-1552 8 -1056 1 -1549 5 -1557 12 -14 11 -18 114 -7 156 6 19 11 22 36 17 60
-14 89 35 103 172 9 86 -3 106 -63 101 l-47 -3 -3 109 c-2 88 0 113 14 134 9
14 31 53 49 86 52 98 70 126 78 126 4 0 7 6 7 13 0 12 47 113 137 292 25 50
142 284 260 520 118 237 220 441 228 455 12 21 22 25 67 27 73 2 198 13 225
19 28 5 55 65 51 109 -3 27 -6 30 -32 27 -27 -4 -28 -2 -22 25 6 24 251 525
317 648 12 22 25 47 29 55 7 15 63 119 87 163 11 19 9 23 -10 34 -12 7 -46 12
-74 13 -29 0 -53 3 -53 8 0 15 65 169 96 227 17 33 66 126 108 207 41 82 83
159 92 173 29 45 14 55 -80 55 -95 0 -116 5 -116 29 -1 14 -2 14 -11 -1 -5
-10 -18 -18 -29 -18 -15 0 -17 4 -10 28 5 15 18 59 30 97 29 96 30 98 92 101
189 9 278 17 287 27 13 16 64 120 394 797 57 118 145 298 195 400 101 208 180
374 224 470 17 36 34 70 40 77 7 9 281 11 1121 10 l1112 -2 5 -249z m11954
241 c25 -18 16 -41 -26 -67 -18 -11 -36 -21 -40 -22 -3 -2 -9 -35 -12 -75 -6
-84 5 -103 60 -103 69 0 74 -8 74 -124 0 -71 -4 -107 -12 -114 -7 -5 -97 -12
-199 -14 -103 -3 -192 -8 -198 -12 -16 -10 -15 -372 1 -382 7 -4 99 -10 205
-12 187 -4 193 -5 198 -26 3 -11 4 -531 3 -1154 -3 -1109 -3 -1134 -22 -1148
-15 -10 -53 -14 -145 -14 -69 0 -133 -5 -141 -10 -13 -8 -15 -42 -13 -221 1
-162 5 -214 15 -220 7 -5 72 -9 145 -9 72 0 138 -3 147 -6 14 -5 16 -47 16
-364 l0 -358 78 -9 c42 -4 170 -7 283 -5 123 2 216 -1 232 -7 l27 -11 0 -739
c0 -695 -1 -741 -17 -749 -10 -5 -147 -12 -306 -14 -158 -3 -289 -7 -292 -9
-7 -7 -8 -557 -1 -568 4 -6 66 -10 147 -10 77 -1 151 -4 164 -7 33 -8 38 -32
30 -125 -6 -62 -11 -82 -25 -89 -10 -6 -59 -10 -108 -10 -49 0 -117 -3 -151
-6 l-61 -7 0 -338 c0 -332 0 -339 -21 -349 -14 -8 -264 -10 -874 -8 -469 2
-856 5 -858 8 -3 3 -7 345 -9 760 l-3 755 -1552 5 c-1362 4 -1554 7 -1566 20
-12 12 -13 33 -8 98 3 46 11 86 17 90 6 4 15 18 19 31 6 19 12 22 35 17 48 -9
54 11 56 164 1 76 7 161 14 189 7 29 9 55 5 59 -4 4 -30 7 -58 7 -40 0 -52 4
-55 17 -3 17 74 184 138 298 53 93 197 372 562 1089 37 74 72 139 76 143 5 5
46 10 91 12 53 3 88 9 96 17 15 17 15 17 199 387 148 298 188 375 306 586 l33
60 -24 18 c-17 14 -36 19 -73 17 -65 -4 -68 8 -22 90 20 34 89 169 155 300 66
131 129 255 141 276 31 54 22 65 -52 65 -35 0 -87 3 -116 7 l-54 6 7 68 c4 38
13 88 20 111 11 38 16 44 51 52 21 4 103 10 182 13 l142 4 31 67 c39 85 464
934 574 1147 45 88 115 225 155 305 40 80 77 150 82 157 7 8 271 12 1046 13
873 1 1040 -1 1056 -13z m1801 -152 l0 -80 -50 0 -50 0 -3 68 c-4 84 6 99 62
95 l41 -3 0 -80z m-671 -111 c13 -5 16 -26 16 -125 l0 -119 -27 -11 c-37 -14
-173 -5 -184 13 -10 15 -12 232 -2 241 8 9 176 9 197 1z m502 -306 c12 -19 4
-242 -9 -250 -19 -12 -325 -10 -332 3 -11 17 -12 233 -2 247 13 17 332 17 343
0z m-17053 -697 c14 -11 17 -34 17 -126 l0 -112 -31 -7 c-17 -3 -75 -6 -129
-6 -54 0 -112 3 -129 6 l-31 7 0 123 c0 145 -15 133 166 131 86 -2 126 -6 137
-16z m171 9 c26 -9 26 -10 26 -125 0 -115 0 -116 -26 -125 -14 -6 -36 -7 -49
-4 -22 5 -23 10 -27 122 -3 65 0 123 5 130 11 15 37 15 71 2z m16979 -427 c13
-7 8 -318 -5 -331 -19 -19 -412 -17 -427 2 -8 9 -11 64 -9 172 l3 159 140 6
c134 5 282 1 298 -8z m-19056 -1155 c12 -20 3 -242 -11 -250 -13 -9 -308 -11
-330 -2 -13 5 -16 26 -16 128 0 68 3 126 7 129 3 4 82 7 174 7 123 0 170 -3
176 -12z m-429 -548 c3 -138 2 -140 -106 -140 -111 0 -112 1 -112 125 0 57 3
111 6 120 5 13 22 15 108 13 l101 -3 3 -115z m6350 -3301 c2 -83 0 -97 -14
-103 -27 -10 -32 3 -34 94 -3 113 -4 112 23 108 21 -3 22 -8 25 -99z m90 -10
c-4 -119 -22 -121 -26 -2 -3 93 2 123 19 106 5 -5 9 -50 7 -104z m12002 11 c0
-93 -1 -100 -20 -100 -19 0 -20 7 -20 100 0 93 1 100 20 100 19 0 20 -7 20
-100z m-123 58 c-3 -8 -6 -5 -6 6 -1 11 2 17 5 13 3 -3 4 -12 1 -19z m-17873
-107 c11 -16 18 -216 9 -229 -14 -19 -324 -22 -346 -3 -14 11 -17 33 -17 121
0 58 3 110 7 113 10 11 341 8 347 -2z m17873 -33 c-3 -8 -6 -5 -6 6 -1 11 2
17 5 13 3 -3 4 -12 1 -19z m-5410 -563 c21 -15 22 -22 20 -126 -3 -123 -6
-129 -72 -129 -87 0 -85 -3 -85 135 0 138 -3 132 75 134 22 0 50 -6 62 -14z
m1581 -79 c5 -79 -2 -96 -44 -96 -19 0 -36 6 -39 13 -8 25 -14 125 -7 131 3 4
24 6 47 4 l40 -3 3 -49z m4223 -476 c16 -9 19 -22 19 -78 0 -40 -5 -73 -12
-80 -13 -13 -242 -18 -272 -6 -13 5 -16 22 -16 84 0 74 1 79 23 83 47 9 239 7
258 -3z m-15907 -206 c3 -9 6 -57 6 -109 0 -105 -5 -114 -69 -122 -27 -4 -48
-1 -64 10 -22 14 -24 23 -26 112 -1 63 2 102 10 111 17 21 135 19 143 -2z
m5044 -23 c9 -5 12 -28 10 -77 l-3 -69 -37 -3 c-63 -5 -78 10 -78 79 0 53 3
61 23 69 28 11 68 12 85 1z m11673 -141 c17 -10 19 -22 19 -130 0 -82 -4 -121
-12 -126 -7 -4 -50 -7 -97 -7 -66 1 -88 5 -97 18 -7 9 -12 59 -13 126 -2 105
-1 110 21 119 32 12 155 12 179 0z m-11384 -514 c4 -8 6 -92 3 -188 l-5 -173
-165 -2 c-91 -2 -170 0 -176 5 -8 4 -14 68 -19 173 -6 148 -5 167 10 182 14
15 40 17 180 17 131 0 166 -3 172 -14z m9961 -147 c16 -10 18 -24 14 -123 -2
-61 -9 -117 -15 -124 -8 -10 -33 -13 -93 -10 -45 1 -86 6 -89 10 -4 4 -7 58
-7 120 0 96 3 114 18 125 22 16 147 17 172 2z m-4102 -41 c11 -18 14 -230 3
-250 -9 -16 -26 -18 -190 -18 -105 0 -188 4 -200 10 -17 10 -19 22 -19 131 0
115 1 120 23 129 34 14 374 13 383 -2z m632 0 c14 -18 15 -238 1 -255 -14 -16
-160 -18 -190 -3 -17 10 -19 22 -19 128 0 79 4 122 12 130 17 17 182 16 196 0z
m-10465 -261 c15 -11 17 -27 15 -122 l-3 -110 -35 0 -35 0 -3 106 c-2 87 0
110 13 123 20 19 26 20 48 3z m-146 -115 c1 -112 1 -113 -24 -123 -13 -5 -42
-6 -64 -3 -31 5 -41 12 -45 31 -8 30 1 186 11 203 4 7 29 10 63 8 l57 -3 2
-113z m10262 -101 c19 -12 16 -251 -2 -263 -7 -4 -77 -8 -157 -8 -80 0 -150 4
-157 8 -18 12 -21 251 -2 263 8 5 79 9 159 9 80 0 151 -4 159 -9z"/>
<path d="M10182 11964 c-176 -38 -291 -104 -423 -240 -222 -231 -377 -590
-459 -1068 -27 -160 -27 -184 5 -192 13 -3 29 -12 35 -19 16 -19 -41 -80 -99
-108 -37 -17 -46 -27 -46 -47 0 -23 4 -25 65 -31 36 -4 149 -7 252 -8 112 -1
189 -5 193 -11 9 -15 10 -198 1 -207 -4 -5 -98 -9 -209 -11 -134 -2 -206 -7
-215 -15 -24 -19 -11 -790 17 -1057 38 -360 114 -711 204 -945 49 -125 136
-317 154 -337 14 -16 13 -18 -11 -28 -15 -5 -79 -10 -142 -10 -131 0 -138 -5
-108 -71 29 -66 38 -69 224 -69 186 0 172 4 281 -89 120 -102 240 -138 428
-128 188 10 258 39 384 159 82 78 78 91 -38 101 -50 5 -106 9 -125 10 -19 1
-34 6 -34 10 2 9 15 44 51 137 14 36 28 74 33 85 4 11 14 36 23 56 l15 36 124
11 c67 7 141 12 163 12 22 0 45 4 51 8 14 9 66 109 94 182 40 99 81 214 91
250 6 19 14 49 19 65 13 46 49 194 61 250 5 28 14 68 19 90 13 60 38 210 49
300 29 231 34 318 37 635 2 190 3 348 3 353 1 4 20 7 44 7 24 0 69 5 100 11
64 13 67 19 65 127 -1 74 22 65 -223 91 l-60 6 -12 55 c-6 30 -12 78 -12 107
-1 28 -5 73 -11 100 -5 26 -17 91 -26 143 -44 254 -149 586 -242 765 -102 198
-262 395 -375 463 -128 77 -265 99 -415 66z m976 -1727 c12 -14 19 -173 8
-184 -9 -10 -112 -16 -141 -9 -24 6 -25 8 -25 94 0 55 4 92 12 100 17 17 132
16 146 -1z m-200 -94 l-1 -88 -7 80 c-7 75 -5 95 6 95 2 0 3 -39 2 -87z"/>
<path d="M7542 10318 c5 -15 55 -35 64 -25 4 3 4 13 1 22 -8 19 -71 21 -65 3z"/>
<path d="M9072 10283 c5 -25 28 -28 28 -4 0 12 -6 21 -16 21 -9 0 -14 -7 -12
-17z"/>
<path d="M4462 11347 c-13 -8 -84 -137 -194 -354 -146 -289 -178 -345 -208
-365 -40 -27 -66 -68 -57 -91 9 -25 32 -11 43 26 13 45 45 44 60 -3 8 -23 19
-37 35 -40 13 -3 25 -13 27 -22 2 -9 -30 -81 -71 -160 -41 -79 -143 -280 -227
-448 -84 -168 -160 -313 -168 -322 -12 -14 -31 -18 -87 -18 -91 0 -81 11 -205
-225 -29 -55 -79 -145 -110 -200 -31 -55 -76 -135 -98 -177 -41 -76 -42 -77
-19 -84 28 -9 1201 -9 1216 0 8 5 11 109 11 345 l0 338 -82 8 c-46 3 -99 7
-118 7 -19 1 -38 6 -42 12 -4 6 -8 106 -8 221 0 116 4 215 8 221 4 6 23 12 42
12 107 5 180 15 190 27 8 9 11 158 11 499 l-1 486 29 62 c36 78 48 112 60 163
5 22 12 48 16 57 10 24 -25 40 -53 25z"/>
<path d="M4608 11346 c-24 -17 -23 -32 3 -49 44 -31 107 18 63 50 -22 16 -44
16 -66 -1z"/>
<path d="M1572 8420 c-17 -27 -15 -57 4 -64 12 -4 14 -1 9 13 -3 11 -1 22 5
26 12 7 14 45 2 45 -4 0 -13 -9 -20 -20z"/>
<path d="M1510 8312 c0 -7 -11 -28 -25 -46 -25 -33 -34 -86 -15 -86 6 0 10 5
10 10 0 6 9 10 20 10 15 0 20 7 20 25 0 14 5 25 10 25 6 0 10 8 10 18 0 21
-29 64 -30 44z"/>
<path d="M5850 6743 c-14 -2 -29 -10 -35 -17 -16 -20 -3 -175 15 -186 8 -5 88
-10 177 -10 145 0 163 2 171 18 15 28 8 182 -9 193 -14 9 -271 10 -319 2z"/>
<path d="M16508 11349 c-10 -5 -92 -159 -184 -342 -91 -183 -177 -347 -191
-364 -15 -21 -33 -33 -47 -33 -29 0 -46 -20 -49 -57 -3 -39 24 -37 43 4 20 43
46 42 64 -2 10 -23 22 -35 35 -35 46 0 54 21 -236 -570 -99 -201 -188 -372
-198 -380 -12 -10 -49 -17 -107 -20 -82 -5 -90 -7 -103 -30 -8 -14 -39 -68
-68 -120 -29 -52 -76 -140 -104 -195 -28 -55 -66 -127 -85 -160 -18 -33 -44
-84 -58 -113 -30 -66 -24 -71 80 -73 246 -5 1155 2 1162 9 5 5 7 159 6 343
l-3 334 -70 8 c-38 5 -90 10 -115 10 -25 1 -48 7 -53 12 -4 6 -7 108 -6 227 0
227 4 243 44 228 11 -4 28 -3 38 2 11 5 48 11 84 13 36 2 68 7 72 10 3 4 8
235 11 513 4 449 7 511 22 542 22 45 68 189 68 212 0 23 -31 39 -52 27z"/>
<path d="M16638 11349 c-42 -24 -1 -66 53 -54 18 4 29 13 29 24 0 36 -44 53
-82 30z"/>
<path d="M17863 6743 c-19 -3 -34 -11 -37 -21 -9 -30 -1 -171 10 -182 7 -7 71
-10 180 -8 l169 3 3 99 c2 73 -1 102 -10 108 -13 8 -253 9 -315 1z"/>
</g>
</svg>
